<?xml version="1.0" encoding="utf-8"?>
<!-- Generator: Adobe Illustrator 24.3.0, SVG Export Plug-In . SVG Version: 6.00 Build 0)  -->
<svg version="1.2" baseProfile="tiny" id="Layer_1" xmlns="http://www.w3.org/2000/svg" xmlns:xlink="http://www.w3.org/1999/xlink"
	 x="0px" y="0px" viewBox="0 0 255.53 255.81" overflow="visible" xml:space="preserve">
<g>
	<circle fill="#E3E3F8" cx="127.62" cy="125.56" r="120.04"/>
	<path fill="#D1D0ED" d="M116.63,189.96c-6.66,0-13.33,0.01-19.99,0.01c-1.02-0.15-2.17,0.14-2.93-0.87
		c22.29,0.01,44.57,0.02,66.86,0.03c-4.57,1.66-9.32,0.2-13.96,0.81c-6.99,0-13.97,0-20.96,0
		C122.65,189.95,119.64,189.95,116.63,189.96z"/>
	<path fill="#D1D1EF" d="M160.58,189.13c6.44-0.81,11.01-4.01,13.22-10.27c2.65-2.61,6.07-4.04,9.2-5.9
		c1.45-0.86,3.05-1.45,4.62-0.09c0,2,0,4,0,5.99c-6.43,5.07-13.86,8.5-20.78,12.77c-4.65,2.87-9.35,5.68-13.92,8.69
		c-5.11,0.02-10.21,0.03-15.31-0.02c-1.05-0.01-2.49,0.5-2.92-0.97c-0.36-1.24,0.59-2.21,1.49-2.9c3.42-2.56,6.93-4.98,10.72-6.99
		C151.45,189.12,156.03,189.73,160.58,189.13z"/>
	<path fill="#D5D5F1" d="M146.62,189.95c-2.49,4.54-8.33,5.09-11.99,9.9c6.92,0,12.97,0,19.01,0c2.78-2.15,6.02-1.41,9.14-1.47
		c4.95,0.47,10.15-1.45,14.86,1.48c-1.48,1.61-3.42,0.95-5.17,0.96c-12.94,0.05-25.88,0.02-38.82,0.02
		c-5.36-1.14-10.79-0.15-16.17-0.54c-1.32-0.09-3.28,0.86-3.77-1.1c-0.39-1.55,0.96-2.79,2.2-3.59c3.45-2.21,6.6-4.92,10.58-6.23
		C133.2,189.71,139.94,188.68,146.62,189.95z"/>
	<path fill="#CFCFEE" d="M177.63,199.86c-5,0-10-0.01-15-0.01c-0.78-2.22,0.7-3.5,2.19-4.47c6.22-4.05,12.58-7.89,19.1-11.45
		c1.14-0.62,2.44-1.15,3.69-0.07C188.7,194.14,183.59,199.06,177.63,199.86z"/>
	<path fill="#D1D1EF" d="M187.61,183.86c-8.89,4.45-18.17,8.29-24.98,15.99c-3,0-6,0-8.99,0c0.15-3.29,3.23-3.51,5.2-4.68
		c9.48-5.62,18.56-11.96,28.77-16.3C187.61,180.53,187.61,182.2,187.61,183.86z"/>
	<path fill="#D9D9F3" d="M174.79,158.88c0-3.01,0-6.01,0-9.02c3.46-3.82,7.43-6.7,12.82-6.96c0,3.33,0,6.66,0,9.99
		C183.79,155.85,180.46,159.86,174.79,158.88z"/>
	<path fill="#D3D3F0" d="M187.61,172.87c-5.38,0.22-8.67,5.25-13.82,5.99c1.32-3.23,0.55-6.67,1-9.99
		c3.78-3.06,7.24-6.79,12.82-5.99C187.61,166.21,187.61,169.54,187.61,172.87z"/>
	<path fill="#D6D6F1" d="M187.61,162.88c-4.84,0.79-8.18,4.79-12.82,5.99c0-3.33,0-6.66,0-9.99c4.89-0.68,8.15-4.85,12.82-5.99
		C187.61,156.22,187.61,159.55,187.61,162.88z"/>
	<path fill="#DCDCF5" d="M187.61,142.89c-4.27,2.32-8.55,4.64-12.82,6.96c0-3.32,0-6.64,0-9.97c3.92-2.75,7.2-6.88,12.82-5.99
		C187.61,136.9,187.61,139.9,187.61,142.89z"/>
	<path fill="#D6D6F0" d="M125.66,189.94c-2.65,4.36-8.53,4.82-11.61,9.41c6.74,1.54,13.38-0.92,19.6,1.48
		c-9.65-0.48-19.37,1.08-28.97-0.99c-0.52-1.75,0.55-2.94,1.75-3.69c3.69-2.33,6.98-5.36,11.23-6.78
		C120.32,189.65,123.06,188.76,125.66,189.94z"/>
	<path fill="#DBDBF4" d="M116.63,189.96c-1.85,2.93-4.97,4.18-7.79,5.81c-1.75,1.01-3.18,2.31-4.17,4.08
		c-4.16-2.08-7.65-4.72-8.04-9.88C103.3,189,109.97,189.02,116.63,189.96z"/>
	<path fill="#E0E0F7" d="M187.61,133.9c-4.85,0.76-8.02,5.12-12.82,5.99c0-2.34,0-4.68,0-7.02c2.6-1.45,5.19-2.91,7.81-4.34
		c1.27-0.69,2.53-2.03,4.06-1.21c1.63,0.87,0.77,2.68,0.93,4.08C187.69,132.23,187.61,133.07,187.61,133.9z"/>
	<path fill="#482C2A" d="M160.01,189.2H95.24c-8.29,0-15.04-6.75-15.04-15.04V88.07c0-8.29,6.74-15.03,15.04-15.03h45.69
		c1.99,0,3.87,0.77,5.28,2.18l25.57,25.39c2.07,2.06,3.26,4.92,3.26,7.84v65.72C175.04,182.45,168.3,189.2,160.01,189.2z"/>
	<path fill="#6EC177" d="M171.73,175.02c-0.73,6.46-3.88,10.03-10.05,11.17c-1.95,0.36-3.96,0.49-5.94,0.49
		c-18.8,0.04-37.59,0.03-56.39,0.02c-12.29-0.01-16.51-4.22-16.51-16.43c0-26.45-0.01-52.9,0-79.35c0-10.32,4.57-14.96,14.86-14.96
		c14.64,0,29.27,0.08,43.91,0.13c2.1,4.6,0.87,9.46,0.96,14.19c0.21,11.44,5.69,17.13,17,17.16c12.53,0.02,12.53,0.02,12.53,12.39
		c0,16.76,0.01,33.52-0.02,50.28C172.09,171.75,172.42,173.43,171.73,175.02z"/>
	<path fill="#6EC177" d="M169.69,102.72c-22.85,2.35-25.55-5.09-23.5-22.06C153.52,87.53,161.27,94.82,169.69,102.72z"/>
	<path fill="#62AC6A" d="M171.55,175.02c-0.06-20.13-0.26-40.27-0.06-60.4c0.05-4.63-1.26-6.3-5.84-5.76
		c-2.79,0.33-5.65,0.08-8.48,0.06c-8.67-0.06-15.42-6.6-15.66-15.36c-0.16-5.82-0.06-11.65-0.07-17.47c2.48,0.17,1.65,2.1,1.68,3.39
		c0.1,3.99-0.02,7.99,0.05,11.98c0.14,8.49,5.95,14.26,14.52,14.44c3.83,0.08,7.66,0.09,11.48-0.01c2.12-0.06,3.01,0.75,3,2.88
		c-0.07,21.8-0.09,43.59-0.15,65.39C172.02,174.45,171.72,174.74,171.55,175.02z"/>
	<path fill="#472B29" d="M159.06,149.95c-21.97,0-43.94,0-65.91,0c0-0.6,0-1.21,0-1.81c21.98,0,43.95,0,65.93,0
		C159.07,148.74,159.06,149.35,159.06,149.95z"/>
	<path fill="#472B29" d="M159.06,139.53c-21.97,0-43.94,0-65.91,0c0-0.6,0-1.21,0-1.81c21.98,0,43.95,0,65.93,0
		C159.07,138.32,159.06,138.93,159.06,139.53z"/>
	<path fill="#472B29" d="M159.06,130.12c-21.97,0-43.94,0-65.91,0c0-0.6,0-1.21,0-1.81c21.98,0,43.95,0,65.93,0
		C159.07,128.91,159.06,129.51,159.06,130.12z"/>
	<path fill="#472B29" d="M128.33,119.99c-11.73,0-23.45,0-35.18,0c0-0.6,0-1.21,0-1.81c11.73,0,23.46,0,35.19,0
		C128.33,118.78,128.33,119.39,128.33,119.99z"/>
	<path fill="#472B29" d="M116.07,160.29c-7.64,0-15.28,0-22.92,0c0-0.6,0-1.21,0-1.81c7.64,0,15.28,0,22.93,0
		C116.07,159.08,116.07,159.68,116.07,160.29z"/>
	<path fill="#472B29" d="M136.15,160.29c-4.61,0-9.21,0-13.82,0c0-0.6,0-1.21,0-1.81c4.61,0,9.22,0,13.82,0
		C136.15,159.08,136.15,159.68,136.15,160.29z"/>
	<g>
		<circle fill="#F17653" cx="99.61" cy="98.96" r="5.97"/>
		<path fill="#482C2A" d="M99.61,93.99c2.74,0,4.97,2.22,4.97,4.97s-2.22,4.97-4.97,4.97c-2.74,0-4.97-2.22-4.97-4.97
			S96.87,93.99,99.61,93.99 M99.61,91.99c-3.84,0-6.97,3.13-6.97,6.97s3.13,6.97,6.97,6.97c3.84,0,6.97-3.13,6.97-6.97
			S103.45,91.99,99.61,91.99L99.61,91.99z"/>
	</g>
	<circle fill="#FEB433" cx="235.53" cy="12.68" r="12.68"/>
	<circle fill="#FEBF7F" cx="215.56" cy="6.9" r="4.03"/>
	<circle fill="#8C8DBB" cx="250.62" cy="45.03" r="4.91"/>
	<circle fill="#FE6788" cx="214.67" cy="249.38" r="6.43"/>
	<circle fill="#8989DE" cx="47.82" cy="228.07" r="3.54"/>
	<circle fill="#FBC235" cx="30.17" cy="212.81" r="10.96"/>
	<circle fill="#FDFDFE" cx="54.21" cy="195.18" r="5.25"/>
	<circle fill="#FE6787" cx="6.49" cy="33.45" r="6.49"/>
	<g>
		<path fill="#F17653" d="M91.38,191.42c-2.07,0-3.75-1.68-3.75-3.75v-4.83c0-0.97-0.79-1.75-1.75-1.75h-4.83
			c-2.07,0-3.75-1.68-3.75-3.75v-1.63c0-2.07,1.68-3.75,3.75-3.75h4.83c0.97,0,1.75-0.79,1.75-1.75v-4.83
			c0-2.07,1.68-3.75,3.75-3.75h1.63c2.07,0,3.75,1.68,3.75,3.75v4.83c0,0.97,0.79,1.75,1.75,1.75h4.84c2.07,0,3.75,1.68,3.75,3.75
			v1.63c0,2.07-1.68,3.75-3.75,3.75h-4.84c-0.97,0-1.75,0.79-1.75,1.75v4.83c0,2.07-1.68,3.75-3.75,3.75H91.38z"/>
		<path fill="#482C2A" d="M93.01,162.59c1.52,0,2.75,1.23,2.75,2.75v4.84c0,1.52,1.23,2.75,2.75,2.75h4.84
			c1.52,0,2.75,1.23,2.75,2.75v1.63c0,1.52-1.23,2.75-2.75,2.75h-4.84c-1.52,0-2.75,1.23-2.75,2.75v4.84c0,1.52-1.23,2.75-2.75,2.75
			h-1.63c-1.52,0-2.75-1.23-2.75-2.75v-4.84c0-1.52-1.23-2.75-2.75-2.75h-4.84c-1.52,0-2.75-1.23-2.75-2.75v-1.63
			c0-1.52,1.23-2.75,2.75-2.75h4.84c1.52,0,2.75-1.23,2.75-2.75v-4.84c0-1.52,1.23-2.75,2.75-2.75H93.01 M93.01,160.59h-1.63
			c-2.62,0-4.75,2.13-4.75,4.75v4.84c0,0.42-0.34,0.75-0.75,0.75h-4.84c-2.62,0-4.75,2.13-4.75,4.75v1.63
			c0,2.62,2.13,4.75,4.75,4.75h4.84c0.42,0,0.75,0.34,0.75,0.75v4.84c0,2.62,2.13,4.75,4.75,4.75h1.63c2.62,0,4.75-2.13,4.75-4.75
			v-4.84c0-0.42,0.34-0.75,0.75-0.75h4.84c2.62,0,4.75-2.13,4.75-4.75v-1.63c0-2.62-2.13-4.75-4.75-4.75h-4.84
			c-0.42,0-0.75-0.34-0.75-0.75v-4.84C97.77,162.73,95.63,160.59,93.01,160.59L93.01,160.59z"/>
	</g>
</g>
</svg>
